<?xml version="1.0" encoding="UTF-8"?>
<svg version="1.1" xmlns="http://www.w3.org/2000/svg" width="652" height="705">
<path d="M0 0 C215.16 0 430.32 0 652 0 C652 232.65 652 465.3 652 705 C436.84 705 221.68 705 0 705 C0 472.35 0 239.7 0 0 Z " fill="#5E2E5F" transform="translate(0,0)"/>
<path d="M0 0 C0.70640625 0.46664062 1.4128125 0.93328125 2.140625 1.4140625 C3.81053558 2.53829364 5.41468827 3.75932126 7 5 C7 5.66 7 6.32 7 7 C8.98 7.99 8.98 7.99 11 9 C9.55575365 12.23861303 7.74227753 14.61969163 5.375 17.25 C4.74335938 17.95640625 4.11171875 18.6628125 3.4609375 19.390625 C2.73777344 20.18726563 2.73777344 20.18726563 2 21 C-1.45087367 20.40317484 -3.20551787 19.16832156 -5.8125 16.875 C-19.82811767 5.67635985 -36.45256557 2.58149482 -54 4 C-58.3280936 5.14713083 -61.12844859 7.23739251 -64.5 10.1875 C-66.93740936 14.75764254 -66.41902087 19.2048843 -65.66796875 24.21484375 C-65.44753906 24.80394531 -65.22710937 25.39304687 -65 26 C-61.59190446 27.13603185 -58.92003549 27.15948953 -55.32543945 27.20532227 C-54.652005 27.21522186 -53.97857056 27.22512146 -53.284729 27.23532104 C-51.06094873 27.26688389 -48.8371471 27.29167275 -46.61328125 27.31640625 C-45.07056628 27.33698029 -43.5278569 27.35797688 -41.9851532 27.37937927 C-37.92622398 27.4345535 -33.86724427 27.48398325 -29.80822754 27.53222656 C-25.66572582 27.58247554 -21.52329734 27.63814387 -17.38085938 27.69335938 C-9.25396819 27.80088409 -1.1270157 27.90234166 7 28 C7.33 27.34 7.66 26.68 8 26 C8 26.66 8 27.32 8 28 C66.74 28 125.48 28 186 28 C186 33.28 186 38.56 186 44 C179.07 44 172.14 44 165 44 C165 71.39 165 98.78 165 127 C159.06 127 153.12 127 147 127 C146.99742187 124.95039063 146.99484375 122.90078125 146.9921875 120.7890625 C146.96433822 118.76998949 146.93626827 116.75091366 146.90234375 114.73193359 C146.88434819 113.3453114 146.87658499 111.95851238 146.87988281 110.57177734 C146.89471985 100.2971293 145.28548117 93.30889316 138.59790039 85.32641602 C134.62679121 81.41579803 130.29082797 81.12933135 125 81 C124.96261719 81.58007812 124.92523438 82.16015625 124.88671875 82.7578125 C124.34039364 89.24944032 122.93563066 93.56663574 118.8125 98.75 C115.19514941 101.64388047 112.52013642 102.11079284 108 103 C107.34 103.33 106.68 103.66 106 104 C104.12620395 104.07033769 102.24998898 104.0843022 100.375 104.0625 C99.37210937 104.05347656 98.36921875 104.04445313 97.3359375 104.03515625 C96.56507813 104.02355469 95.79421875 104.01195312 95 104 C95 103.34 95 102.68 95 102 C93.35 102.33 91.7 102.66 90 103 C90 97.72 90 92.44 90 87 C93.25520833 87.13020833 96.51041667 87.26041667 99.765625 87.390625 C103.04765356 87.26062196 103.04765356 87.26062196 105.37890625 85.26953125 C107.72968206 81.97844512 107.7394358 79.74358923 107.58203125 75.78515625 C105.97527461 68.09644831 99.89020704 61.81841108 95.22265625 55.70703125 C92.29747142 51.62298725 92 49.06224619 92 44 C60.32 44 28.64 44 -4 44 C-2.02 47.96 -2.02 47.96 0 52 C1.14537626 59.13257035 1.2813194 66.02124833 -2.8125 72.1875 C-3.8463602 73.48173981 -4.90826079 74.7541954 -6 76 C-7.00776709 77.32747251 -8.01001708 78.65921232 -9 80 C-8.45472656 80.13535156 -7.90945313 80.27070313 -7.34765625 80.41015625 C0.10610351 82.53798169 5.55210036 86.55210036 11 92 C11.33 81.77 11.66 71.54 12 61 C47.47368707 60.03604111 47.47368707 60.03604111 59.390625 70.265625 C66.14847958 77.54836149 69.5833098 85.00948178 69.37890625 94.984375 C68.54576084 101.61518176 66.1061546 108.65339042 60.9375 113.125 C55.57256975 116.54942356 51.42725604 118.2746491 45 117 C41.62395348 114.95808689 38.77804815 112.55609629 37 109 C36.52917486 103.9386297 37.63576141 100.47516591 40 96 C41.75 94.0625 41.75 94.0625 44 93 C47.75 92.8125 47.75 92.8125 51 93 C50.608125 91.7625 50.21625 90.525 49.8125 89.25 C49.59207031 88.55390625 49.37164062 87.8578125 49.14453125 87.140625 C45.18089881 79.72741484 37.59053024 79.33554777 30 77 C30 93.5 30 110 30 127 C24.06 127 18.12 127 12 127 C11.95875 125.35 11.9175 123.7 11.875 122 C11.29251553 115.77619334 9.29797568 112.41997062 5 108 C4.11441406 107.07380859 4.11441406 107.07380859 3.2109375 106.12890625 C-1.87634695 101.26144273 -7.51096406 98.58979461 -14 96 C-14.721875 95.64808594 -15.44375 95.29617188 -16.1875 94.93359375 C-20.47609867 93.51001725 -24.82678971 93.26175382 -29.3125 92.875 C-30.70952148 92.74544922 -30.70952148 92.74544922 -32.13476562 92.61328125 C-34.42256366 92.40209989 -36.71120928 92.20013612 -39 92 C-39 86.72 -39 81.44 -39 76 C-37.515 75.79375 -36.03 75.5875 -34.5 75.375 C-28.91510858 74.27230127 -25.07855652 71.92860959 -21 68 C-18.0231458 63.53471871 -18.50866654 59.23577218 -19 54 C-20.6859839 49.74067225 -22.87379837 47.91916355 -27 46 C-38.85497957 44.02417007 -50.98816714 44.40039443 -63 44 C-63 73.7 -63 103.4 -63 134 C-68.61 134 -74.22 134 -80 134 C-80 104.3 -80 74.6 -80 44 C-89.9 44 -99.8 44 -110 44 C-110 71.39 -110 98.78 -110 127 C-115.61 127 -121.22 127 -127 127 C-126.95875 125.39125 -126.9175 123.7825 -126.875 122.125 C-127.51291025 114.41027293 -132.40255106 110.79270389 -138 106 C-138.54914063 105.4225 -139.09828125 104.845 -139.6640625 104.25 C-141.011274 102.76948332 -141.011274 102.76948332 -143.5 102.5 C-144.325 102.665 -145.15 102.83 -146 103 C-147.05589069 104.63183107 -148.0436126 106.30792999 -149 108 C-154.61324107 114.34328687 -161.89944048 117.45373069 -170.24609375 118.34765625 C-183.08631631 118.6955068 -191.88840795 114.80895227 -202 107 C-203.69429214 105.36142449 -205.36306411 103.6958763 -207 102 C-207.65742188 101.37738281 -208.31484375 100.75476563 -208.9921875 100.11328125 C-214.11192538 95.21660249 -218.1202411 89.91663232 -222 84 C-218.50794062 80.40523299 -214.95966325 77.07973809 -211 74 C-210.34 74 -209.68 74 -209 74 C-207.43319735 75.94946406 -205.9611218 77.91125102 -204.5 79.9375 C-197.2397463 89.63853028 -187.74500394 100.20925141 -175.2578125 102.50390625 C-171.30077401 102.68590654 -168.68487565 102.34243783 -165.125 100.5625 C-159.0199116 93.20048163 -157.1886033 84.35319109 -158 75 C-159.33704716 71.05922942 -159.9730081 69.52543771 -163.6875 67.625 C-164.450625 67.41875 -165.21375 67.2125 -166 67 C-165.67 67.66 -165.34 68.32 -165 69 C-164.61106181 73.66725826 -164.54852163 76.07967871 -166.625 80.3125 C-169.99170541 84.12219296 -172.97487521 85.61221015 -177.9375 86.5625 C-182.3591448 85.75036116 -185.04804734 83.31714268 -188 80 C-190.33689575 76.10001504 -190.63305678 72.45574581 -190 68 C-187.78057449 60.62532663 -182.49168667 56.02480702 -176.265625 51.83203125 C-170.0036285 49.53236702 -160.66448529 49.8051751 -154.31640625 51.875 C-152.27304964 53.08587799 -150.69236198 54.33710701 -149 56 C-148.44054687 56.51949219 -147.88109375 57.03898437 -147.3046875 57.57421875 C-140.99585608 64.11163102 -139.97102864 70.77290496 -139.875 79.625 C-139.68387181 84.9781294 -139.68387181 84.9781294 -137.046875 89.44921875 C-134.76869826 91.20194505 -132.52761898 92.63863328 -130 94 C-128.515 94.99 -128.515 94.99 -127 96 C-127 78.84 -127 61.68 -127 44 C-158.68 44 -190.36 44 -223 44 C-223 38.72 -223 33.44 -223 28 C-176.8 27.67 -130.6 27.34 -83 27 C-83.99 24.03 -83.99 24.03 -85 21 C-86.1581306 12.52948663 -83.68917168 6.44747624 -79.375 -0.6875 C-58.71059934 -20.80810065 -21.56728978 -15.6147178 0 0 Z " fill="#FCFB02" transform="translate(371,255)"/>
<path d="M0 0 C1.08611572 0.00418945 2.17223145 0.00837891 3.29125977 0.01269531 C18.54944244 0.22551068 35.28193512 2.22590921 46.75 13.3125 C56.04540302 24.12862335 58.75 35.32086209 58.75 49.3125 C65.68 49.3125 72.61 49.3125 79.75 49.3125 C79.75 54.5925 79.75 59.8725 79.75 65.3125 C72.82 65.3125 65.89 65.3125 58.75 65.3125 C58.75 95.0125 58.75 124.7125 58.75 155.3125 C52.81 155.3125 46.87 155.3125 40.75 155.3125 C40.75 125.6125 40.75 95.9125 40.75 65.3125 C25.57 65.3125 10.39 65.3125 -5.25 65.3125 C-2.22532363 75.06243279 -2.22532363 75.06243279 3.75 81.3125 C4.08 81.6425 4.41 81.9725 4.75 82.3125 C8.38 82.6425 12.01 82.9725 15.75 83.3125 C15.75 104.7625 15.75 126.2125 15.75 148.3125 C9.81 148.3125 3.87 148.3125 -2.25 148.3125 C-2.25 131.1525 -2.25 113.9925 -2.25 96.3125 C-3.9 95.6525 -5.55 94.9925 -7.25 94.3125 C-15.50690687 87.38317423 -21.96966744 75.99274246 -23.25 65.3125 C-30.85033653 64.87668653 -30.85033653 64.87668653 -37.34765625 68.171875 C-40.18166441 72.32192135 -41.98856872 76.21459013 -42.25 81.3125 C-40.765 81.2196875 -40.765 81.2196875 -39.25 81.125 C-31.96719635 81.18361411 -26.29845159 84.22972956 -21.08203125 89.19921875 C-14.16232128 97.18122961 -13.3635309 105.90667227 -13.8359375 116.05859375 C-14.54805631 125.12716822 -18.3183623 132.3823917 -25.25 138.3125 C-30.62964737 141.78937821 -35.80163682 143.97311246 -42.25 144.3125 C-43.07113281 144.374375 -43.89226562 144.43625 -44.73828125 144.5 C-54.98987838 144.9640044 -63.37227261 141.8915449 -71.1953125 135.265625 C-81.45141912 125.51647422 -87.70672983 111.16726701 -90.25 97.3125 C-90.25 95.9925 -90.25 94.6725 -90.25 93.3125 C-88.70998293 92.97162666 -87.16787594 92.64019047 -85.625 92.3125 C-84.76648438 92.126875 -83.90796875 91.94125 -83.0234375 91.75 C-80.05730995 91.28210382 -77.24792667 91.24216741 -74.25 91.3125 C-74.04246094 92.08851563 -73.83492187 92.86453125 -73.62109375 93.6640625 C-70.36394088 105.08453994 -65.99091027 118.3242264 -56.125 125.625 C-51.6439812 127.99560349 -47.19492551 127.98161533 -42.25 127.3125 C-38.70092249 126.08645504 -36.90513124 125.16244244 -34.62109375 122.19921875 C-32.88530216 118.5446604 -32.73536565 115.27840853 -32.75 111.3125 C-32.72164062 110.61382812 -32.69328125 109.91515625 -32.6640625 109.1953125 C-32.6493564 105.29819524 -33.08853817 103.51598614 -35.53125 100.4375 C-39.34921712 97.45334179 -41.91829728 96.05126077 -46.796875 96.1171875 C-47.64121094 96.12363281 -48.48554688 96.13007813 -49.35546875 96.13671875 C-50.66451172 96.16185547 -50.66451172 96.16185547 -52 96.1875 C-53.33224609 96.20103516 -53.33224609 96.20103516 -54.69140625 96.21484375 C-56.87788058 96.23835423 -59.06380094 96.27121501 -61.25 96.3125 C-61.95001214 85.69564917 -60.15016952 75.82052124 -55.25 66.3125 C-62.76136408 66.26192035 -70.27268449 66.22681743 -77.78417969 66.20263672 C-80.34116253 66.19255962 -82.89813379 66.17889774 -85.45507812 66.16162109 C-89.12372692 66.13744783 -92.79222379 66.12603415 -96.4609375 66.1171875 C-97.60992523 66.10686493 -98.75891296 66.09654236 -99.94271851 66.08590698 C-101.0036673 66.08575592 -102.06461609 66.08560486 -103.15771484 66.08544922 C-104.09481293 66.081008 -105.03191101 66.07656677 -105.99740601 66.07199097 C-108.45176071 66.0955677 -108.45176071 66.0955677 -110.25 68.3125 C-110.46768018 71.11199837 -110.56142652 73.81549727 -110.56884766 76.61767578 C-110.57889328 77.47628204 -110.5889389 78.33488831 -110.59928894 79.21951294 C-110.63025026 82.0656058 -110.64719189 84.91160406 -110.6640625 87.7578125 C-110.68276375 89.72794415 -110.70233636 91.6980677 -110.7227478 93.66818237 C-110.77418529 98.85983518 -110.8137487 104.05151399 -110.85089111 109.24328613 C-110.89085811 114.53855889 -110.94198368 119.8337224 -110.9921875 125.12890625 C-111.08908433 135.52336858 -111.17241405 145.91787557 -111.25 156.3125 C-117.19 156.3125 -123.13 156.3125 -129.25 156.3125 C-129.22905273 153.96648682 -129.20810547 151.62047363 -129.18652344 149.20336914 C-129.12006844 141.4282691 -129.07599094 133.65315611 -129.04275131 125.87784672 C-129.02192923 121.1663764 -128.99371056 116.45519853 -128.94824219 111.74389648 C-128.90459163 107.1921599 -128.88082248 102.64070357 -128.87049103 98.08877373 C-128.86313399 96.35732045 -128.84876769 94.62588149 -128.82707977 92.89454842 C-128.1361392 79.81025579 -128.1361392 79.81025579 -133.25 68.3125 C-136.99112358 66.32689849 -140.2223948 66.04576218 -144.41723633 65.99365234 C-145.63812454 65.97378265 -146.85901276 65.95391296 -148.11689758 65.93344116 C-149.42539169 65.92188995 -150.7338858 65.91033875 -152.08203125 65.8984375 C-153.44253194 65.87971453 -154.80302117 65.86014027 -156.16349792 65.8397522 C-159.73246479 65.78854398 -163.30146926 65.74885813 -166.87060547 65.71160889 C-170.51734635 65.67149799 -174.16393234 65.62043808 -177.81054688 65.5703125 C-184.95691768 65.47368739 -192.10338575 65.38923999 -199.25 65.3125 C-199.25 68.2825 -199.25 71.2525 -199.25 74.3125 C-198.14591797 74.38597656 -198.14591797 74.38597656 -197.01953125 74.4609375 C-196.04371094 74.53570312 -195.06789063 74.61046875 -194.0625 74.6875 C-193.09957031 74.75710937 -192.13664062 74.82671875 -191.14453125 74.8984375 C-188.19413461 75.32049154 -185.96043141 76.09628078 -183.25 77.3125 C-182.45980469 77.64507812 -181.66960937 77.97765625 -180.85546875 78.3203125 C-172.24098625 82.30050959 -165.35368698 87.82972725 -161.87890625 96.8984375 C-159.84293702 104.71352436 -160.82923748 111.19366367 -164.75 118.2109375 C-167.55523907 122.14119433 -170.67465121 123.78738374 -175.25 125.3125 C-182.87909799 126.06290308 -182.87909799 126.06290308 -186.625 123.0625 C-189.38395469 120.17216652 -191.057099 118.17382546 -191.47265625 114.1640625 C-191.13791773 109.51038061 -190.4578434 106.94843481 -186.875 103.8125 C-184.5907437 102.06285688 -183.02639692 101.23796564 -180.25 100.3125 C-185.74521969 94.13037785 -191.0791662 91.67430563 -199.25 90.3125 C-199.25 109.4525 -199.25 128.5925 -199.25 148.3125 C-205.19 148.3125 -211.13 148.3125 -217.25 148.3125 C-217.270625 146.8275 -217.29125 145.3425 -217.3125 143.8125 C-218.10146331 136.34364735 -222.16827188 132.86689945 -227.73828125 128.25 C-238.21347041 120.24580336 -250.381465 114.32111582 -263.25 111.3125 C-262.7073591 106.91969268 -261.65240362 103.67351267 -259.5 99.8125 C-259.01015625 98.9153125 -258.5203125 98.018125 -258.015625 97.09375 C-250.00976499 84.48274928 -237.51041615 77.56315614 -223.25 74.3125 C-219.80859375 74.19140625 -219.80859375 74.19140625 -217.25 74.3125 C-217.25 71.3425 -217.25 68.3725 -217.25 65.3125 C-235.4 65.3125 -253.55 65.3125 -272.25 65.3125 C-272.25 50.3125 -272.25 50.3125 -271.25 49.3125 C-269.47129399 49.20739845 -267.68839359 49.17284037 -265.90660095 49.16532898 C-264.74722015 49.15817368 -263.58783936 49.15101837 -262.39332581 49.14364624 C-260.46794228 49.13961288 -260.46794228 49.13961288 -258.50366211 49.13549805 C-257.14705225 49.1292359 -255.79044412 49.12258932 -254.43383789 49.11558533 C-250.73720285 49.09814521 -247.04058078 49.08761406 -243.34391475 49.0793798 C-241.0337182 49.07423295 -238.72352569 49.06815689 -236.41333199 49.06186867 C-229.18382914 49.04280285 -221.95433657 49.0285782 -214.7248134 49.0202567 C-206.38327862 49.01049695 -198.0420101 48.98421654 -189.70056909 48.94375581 C-183.2529166 48.91355682 -176.80534022 48.898784 -170.35761839 48.89547569 C-166.50746177 48.89312826 -162.65758912 48.88420927 -158.80750847 48.85901451 C-155.180324 48.83566419 -151.55360898 48.83152812 -147.92636871 48.84177589 C-145.96932953 48.84250427 -144.01231383 48.82345895 -142.05537415 48.80371094 C-134.8348131 48.84623271 -130.514238 49.79355321 -124.25 53.3125 C-121.49103782 52.92399025 -119.7018663 52.03827976 -117.16929626 50.77128601 C-112.3916052 48.68955633 -107.67677392 48.91567314 -102.54125977 48.97192383 C-100.95964806 48.97126671 -100.95964806 48.97126671 -99.34608459 48.97059631 C-95.87766696 48.97267827 -92.40973895 48.99598196 -88.94140625 49.01953125 C-86.5300269 49.0251293 -84.11864412 49.02939841 -81.70726013 49.03239441 C-75.37296055 49.04382667 -69.03886864 49.07328022 -62.70465088 49.10650635 C-56.23607187 49.13724196 -49.76745917 49.15090722 -43.29882812 49.16601562 C-30.61579702 49.19815122 -17.93290958 49.24874827 -5.25 49.3125 C-6.36854586 45.58635847 -6.36854586 45.58635847 -9.25 43.3125 C-11.04208706 43.20636314 -12.83770099 43.15710774 -14.6328125 43.13671875 C-15.71820313 43.11287109 -16.80359375 43.08902344 -17.921875 43.06445312 C-20.20033825 43.02192525 -22.47903785 42.99043847 -24.7578125 42.97070312 C-31.6943948 42.79483459 -36.35294649 42.04890613 -42.25 38.3125 C-47.19160028 32.99077662 -47.6082859 29.39935875 -47.5234375 22.2890625 C-47.15104624 18.23531769 -46.01134708 16.28625839 -43.25 13.3125 C-42.55583984 12.56419922 -42.55583984 12.56419922 -41.84765625 11.80078125 C-30.84143178 1.11747779 -14.54186478 -0.07744121 0 0 Z " fill="#FBFA02" transform="translate(420.25,49.6875)"/>
<path d="M0 0 C10.4827017 2.84941268 17.87673128 12.23233137 23.51171875 20.99609375 C27.39849188 28.29564329 27.4257396 36.98258824 25.33203125 44.8671875 C23.76751818 48.99895175 22.25266918 51.74880092 19.1328125 54.8515625 C18.8028125 55.8415625 18.4728125 56.8315625 18.1328125 57.8515625 C18.99519531 58.1196875 19.85757813 58.3878125 20.74609375 58.6640625 C24.0995681 59.83990587 27.15278387 61.24571782 30.3203125 62.8515625 C31.34511719 63.3671875 32.36992187 63.8828125 33.42578125 64.4140625 C36.1328125 65.8515625 36.1328125 65.8515625 39.1328125 67.8515625 C39.4628125 45.7415625 39.7928125 23.6315625 40.1328125 0.8515625 C72.83028081 0.76333587 105.52763336 0.68949651 138.22518494 0.64730118 C142.08778626 0.64229852 145.95038733 0.63712121 149.81298828 0.63183594 C150.58194379 0.6307867 151.35089929 0.62973745 152.14315648 0.62865642 C164.58450361 0.61126396 177.02577661 0.57973268 189.4670798 0.54295132 C202.23852362 0.50550958 215.00992867 0.48331982 227.78142512 0.47520852 C235.6584653 0.46972743 243.53529592 0.45243286 251.41227157 0.41989663 C257.45827797 0.39619953 263.50410511 0.3937508 269.55016327 0.39913177 C272.0260891 0.39803265 274.50202298 0.3900937 276.97790146 0.3747406 C280.36408675 0.35477515 283.74938279 0.35964807 287.1355896 0.37054443 C288.11032585 0.35889307 289.08506209 0.3472417 290.0893358 0.33523726 C296.07130579 0.387099 300.59905644 1.47995396 306.03896487 3.99347329 C308.21832598 5.04116568 308.21832598 5.04116568 311.1328125 4.8515625 C312.2671875 4.19671875 313.4015625 3.541875 314.5703125 2.8671875 C319.96788084 0.06460394 325.17871449 0.40781213 331.1328125 0.6015625 C332.72416016 0.62863281 332.72416016 0.62863281 334.34765625 0.65625 C336.94310359 0.70301482 339.53808074 0.77474478 342.1328125 0.8515625 C342.1328125 6.1315625 342.1328125 11.4115625 342.1328125 16.8515625 C340.85664062 16.90054687 339.58046875 16.94953125 338.265625 17 C336.59633178 17.07502441 334.92706204 17.15057238 333.2578125 17.2265625 C331.99517578 17.27296875 331.99517578 17.27296875 330.70703125 17.3203125 C329.90136719 17.35898437 329.09570312 17.39765625 328.265625 17.4375 C327.52199707 17.4689209 326.77836914 17.5003418 326.01220703 17.53271484 C323.89270276 17.70575801 323.89270276 17.70575801 322.1328125 19.8515625 C321.91513232 22.65106087 321.82138598 25.35455977 321.81396484 28.15673828 C321.80391922 29.01534454 321.7938736 29.87395081 321.78352356 30.75857544 C321.75256224 33.6046683 321.73562061 36.45066656 321.71875 39.296875 C321.70004875 41.26700665 321.68047614 43.2371302 321.6600647 45.20724487 C321.60862721 50.39889768 321.5690638 55.59057649 321.53192139 60.78234863 C321.49195439 66.07762139 321.44082882 71.3727849 321.390625 76.66796875 C321.29372817 87.06243108 321.21039845 97.45693807 321.1328125 107.8515625 C315.1928125 107.8515625 309.2528125 107.8515625 303.1328125 107.8515625 C303.12870361 105.33313721 303.12459473 102.81471191 303.12036133 100.2199707 C303.10316163 91.89778291 303.05865635 83.57590235 303.00072193 75.25390339 C302.96643542 70.20835237 302.94133936 65.16310467 302.93725586 60.11743164 C302.93297649 55.2477342 302.90454376 50.37872119 302.85938072 45.50923729 C302.84639416 43.65175552 302.84210214 41.79419188 302.84665871 39.9366703 C302.85155658 37.33373806 302.82551045 34.73281248 302.79223633 32.13012695 C302.80086197 31.3626413 302.80948761 30.59515564 302.81837463 29.80441284 C302.73335792 25.83559418 302.28235039 24.03929604 299.77909851 20.89665222 C290.44067279 13.67977605 279.78310012 17.32009167 267.1328125 16.8515625 C267.1328125 44.2415625 267.1328125 71.6315625 267.1328125 99.8515625 C261.1928125 99.8515625 255.2528125 99.8515625 249.1328125 99.8515625 C249.10703125 97.71816406 249.08125 95.58476563 249.0546875 93.38671875 C249.01613518 91.29145832 248.97101828 89.19643313 248.92529297 87.10131836 C248.89728787 85.65937778 248.87597282 84.21728952 248.86181641 82.77514648 C248.77519902 74.44544145 248.5174866 67.20179168 244.1328125 59.8515625 C243.66359375 58.98144531 243.194375 58.11132812 242.7109375 57.21484375 C238.60748548 50.87863107 234.02129615 46.63378417 227.1328125 43.4765625 C221.52088976 42.30741193 217.248859 41.95125418 212.1953125 44.7265625 C209.10445888 46.50835096 209.10445888 46.50835096 208.1328125 48.8515625 C207.98564708 50.65999913 207.9117238 52.47487816 207.8828125 54.2890625 C207.85703125 55.25714844 207.83125 56.22523438 207.8046875 57.22265625 C207.9021037 59.90540177 207.9021037 59.90540177 209.6484375 61.69921875 C210.13828125 62.07949219 210.628125 62.45976563 211.1328125 62.8515625 C211.1534375 61.8203125 211.1740625 60.7890625 211.1953125 59.7265625 C212.28561186 55.21999179 213.57398086 53.70454002 217.1640625 50.953125 C220.31676198 49.18911457 222.62276288 49.26655423 226.1328125 49.8515625 C230.23501021 51.66416149 232.89696609 53.95953357 235.1328125 57.8515625 C235.81183293 62.43117805 235.71972547 66.43061532 233.9453125 70.7265625 C229.10005068 76.40721429 224.40415888 78.43280305 217.14453125 79.14453125 C208.64742289 79.51397074 202.02137037 78.13935784 195.51171875 72.4296875 C189.17629979 65.43628734 188.53498563 58.66653531 188.70703125 49.5390625 C189.28024512 44.57471488 190.76277598 40.59182839 194.1328125 36.8515625 C195.1228125 36.5215625 196.1128125 36.1915625 197.1328125 35.8515625 C197.42285156 35.22636719 197.71289062 34.60117187 198.01171875 33.95703125 C199.52208178 31.12049581 201.18751119 30.50598323 204.0703125 29.1640625 C204.94558594 28.74769531 205.82085937 28.33132813 206.72265625 27.90234375 C214.71109531 24.41953969 223.96485289 24.74053269 232.1328125 27.6015625 C238.74534515 30.36486427 243.0223765 33.7411265 248.1328125 38.8515625 C248.4628125 31.5915625 248.7928125 24.3315625 249.1328125 16.8515625 C221.0828125 16.8515625 193.0328125 16.8515625 164.1328125 16.8515625 C164.1328125 44.2415625 164.1328125 71.6315625 164.1328125 99.8515625 C158.1928125 99.8515625 152.2528125 99.8515625 146.1328125 99.8515625 C146.11093872 97.42139771 146.11093872 97.42139771 146.08862305 94.94213867 C146.03073977 88.94288839 145.95350606 82.94401738 145.87036133 76.94506836 C145.83706507 74.34649807 145.80904796 71.74785463 145.78637695 69.14916992 C145.75291799 65.41813931 145.70060521 61.68778189 145.64453125 57.95703125 C145.63494637 56.20848091 145.63494637 56.20848091 145.62516785 54.42460632 C145.60537369 53.34371231 145.58557953 52.2628183 145.56518555 51.14916992 C145.55408249 50.19652756 145.54297943 49.24388519 145.53153992 48.26237488 C145.06397046 45.43532516 144.42266545 44.52737379 142.1328125 42.8515625 C139.36869958 42.43694556 137.82236888 42.45753028 135.3828125 43.8515625 C133.46940371 46.60097887 133.46940371 46.60097887 133.1328125 53.8515625 C127.5228125 53.8515625 121.9128125 53.8515625 116.1328125 53.8515625 C115.70963542 51.60546875 115.28645833 49.359375 114.86328125 47.11328125 C114.03227295 44.54026624 113.30533513 43.44677142 111.1328125 41.8515625 C107.61446932 41.12803225 104.24226394 41.1928257 101.1328125 43.0390625 C99.82387082 45.41151929 99.91661075 47.1850743 100.1328125 49.8515625 C100.72449219 49.92632813 101.31617188 50.00109375 101.92578125 50.078125 C106.3020255 50.8063092 108.72302524 51.50867929 112.1953125 54.4140625 C114.64000803 58.75142553 115.2372395 61.98164816 114.1328125 66.8515625 C112.17967894 70.41621691 110.0586592 72.54294693 106.1328125 73.8515625 C99.52618531 74.59867705 94.28590855 74.37164286 88.7890625 70.41796875 C84.58504922 66.44200336 82.28505691 61.31967856 81.9296875 55.55859375 C81.81771245 46.25533308 81.83615162 39.18940429 88.3203125 32.0390625 C95.47099276 25.56799235 103.09316084 25.20203753 112.33984375 25.47265625 C117.18070393 25.95624372 119.95642084 27.48756722 124.1328125 29.8515625 C126.94454123 29.31137439 126.94454123 29.31137439 129.1328125 27.8515625 C132.69326427 26.66474524 135.57089587 26.75466418 139.3203125 26.7890625 C140.59261719 26.79808594 141.86492187 26.80710937 143.17578125 26.81640625 C144.63951172 26.83380859 144.63951172 26.83380859 146.1328125 26.8515625 C146.1328125 23.5515625 146.1328125 20.2515625 146.1328125 16.8515625 C117.0928125 16.8515625 88.0528125 16.8515625 58.1328125 16.8515625 C58.1328125 46.8815625 58.1328125 76.9115625 58.1328125 107.8515625 C60.1128125 108.5115625 62.0928125 109.1715625 64.1328125 109.8515625 C70.67206749 113.72741272 76.0817626 118.66050845 81.3203125 124.1015625 C88.76491524 131.77792225 94.68072763 134.10954836 105.1328125 135.8515625 C105.1328125 140.4715625 105.1328125 145.0915625 105.1328125 149.8515625 C93.63206474 150.50254822 84.14943511 146.96343904 75.1328125 139.8515625 C72.35396507 137.28445291 69.69621021 134.60651807 67.10375977 131.85180664 C64.78500295 129.39778574 63.39244535 127.93810678 60.1328125 126.8515625 C60.1121875 127.8415625 60.0915625 128.8315625 60.0703125 129.8515625 C59.32244456 135.10800574 55.90568968 138.36165111 52.1328125 141.8515625 C46.78410974 145.83199246 40.54278468 145.72756395 34.1328125 144.8515625 C27.6295344 142.5449811 24.08447149 137.90689725 21.1328125 131.8515625 C19.40715995 126.67460486 19.4469418 121.72868232 21.3203125 116.6015625 C25.10352895 110.86150995 29.66519501 107.15315998 36.1328125 104.8515625 C37.4528125 104.8515625 38.7728125 104.8515625 40.1328125 104.8515625 C40.40883379 94.94858469 40.40883379 94.94858469 36.1953125 86.3515625 C29.09179759 79.5807988 20.4299293 75.66887062 11.1328125 72.8515625 C9.97007812 72.49835938 8.80734375 72.14515625 7.609375 71.78125 C1.86937259 70.37708412 -3.98658815 70.38822846 -9.8671875 70.2265625 C-11.02347656 70.18789063 -12.17976562 70.14921875 -13.37109375 70.109375 C-16.20288168 70.01576218 -19.03501191 69.93260367 -21.8671875 69.8515625 C-21.8671875 64.2415625 -21.8671875 58.6315625 -21.8671875 52.8515625 C-20.63742188 52.82578125 -19.40765625 52.8 -18.140625 52.7734375 C-16.50777818 52.71713244 -14.87496705 52.65978565 -13.2421875 52.6015625 C-12.43394531 52.58738281 -11.62570313 52.57320312 -10.79296875 52.55859375 C-5.36080914 52.33777425 -2.2251445 51.37300763 2.1328125 47.8515625 C2.9990625 47.1709375 2.9990625 47.1709375 3.8828125 46.4765625 C7.60143362 41.64235504 7.69047704 35.68559158 7.1328125 29.8515625 C6.26627836 26.92075576 6.26627836 26.92075576 5.1328125 24.8515625 C4.5965625 25.5528125 4.0603125 26.2540625 3.5078125 26.9765625 C-1.44309421 32.96976535 -4.96513421 37.07525639 -13.03515625 38.13671875 C-17.2803303 38.41404168 -20.00432169 38.21697478 -23.3671875 35.4765625 C-27.18912319 31.46353003 -27.25774357 28.78887414 -27.2265625 23.40234375 C-26.64758716 19.29287746 -24.86803821 17.63806673 -21.8671875 14.8515625 C-18.42861772 13.13227761 -14.63469854 13.46181998 -10.8671875 13.8515625 C-7.8046875 15.3515625 -7.8046875 15.3515625 -5.8671875 16.8515625 C-7.0530112 13.47652581 -8.14292439 11.20433519 -10.8671875 8.8515625 C-9.07939401 4.02452007 -5.38267875 -0.27866729 0 0 Z " fill="#FAF903" transform="translate(181.8671875,466.1484375)"/>
<path d="M0 0 C2.09625302 -0.0118665 4.1895238 -0.06114918 6.28515625 -0.11157227 C16.56794632 -0.2340162 26.48523772 1.44301361 34.92578125 7.80053711 C42.52896339 15.98857941 43.36328125 23.24995366 43.36328125 34.42553711 C33.79328125 34.42553711 24.22328125 34.42553711 14.36328125 34.42553711 C13.86828125 28.48553711 13.86828125 28.48553711 13.36328125 22.42553711 C11.65100075 17.5455377 9.97761018 15.65953065 5.36328125 13.42553711 C1.91730919 12.95610013 1.91730919 12.95610013 -1.8359375 12.98413086 C-2.85032646 12.96431908 -2.85032646 12.96431908 -3.88520813 12.94410706 C-6.03158812 12.90341687 -8.17754165 12.88158656 -10.32421875 12.86303711 C-12.48147961 12.83924644 -14.63833921 12.81117643 -16.79536438 12.77125549 C-18.7445153 12.73579413 -20.69393089 12.71590239 -22.64331055 12.69677734 C-25.63671875 12.42553711 -25.63671875 12.42553711 -27.63671875 10.42553711 C-27.4872028 7.50997617 -27.08886992 5.93420717 -25.13671875 3.73803711 C-17.42590386 -0.31014071 -8.4927219 0.02264988 0 0 Z " fill="#5E315B" transform="translate(417.63671875,64.574462890625)"/>
<path d="M0 0 C12.54 0 25.08 0 38 0 C38 9.24 38 18.48 38 28 C34 26 34 26 32.28125 24.96484375 C26.47716404 21.61731172 20.65230715 20.94882841 14 21 C13.34 21.33 12.68 21.66 12 22 C10.17884369 19.08865505 8.36962871 16.17006919 6.5625 13.25 C6.04623047 12.425 5.52996094 11.6 4.99804688 10.75 C4.25844727 9.55117188 4.25844727 9.55117188 3.50390625 8.328125 C2.82050171 7.22839355 2.82050171 7.22839355 2.12329102 6.10644531 C1 4 1 4 0 0 Z " fill="#693361" transform="translate(480,299)"/>
<path d="M0 0 C0 8.25 0 16.5 0 25 C-1.60875 23.948125 -3.2175 22.89625 -4.875 21.8125 C-10.94430329 17.94665178 -17.14889973 14.28370009 -24 12 C-21.86267161 6.51419046 -16.98089792 4.61343409 -12 2 C-7.38257277 0.04647309 -5.2875264 0 0 0 Z " fill="#66335E" transform="translate(203,140)"/>
<path d="M0 0 C9.9 0 19.8 0 30 0 C30.19741448 9.18736639 30.38910422 18.37467029 30.5625 27.5625 C30.57523327 28.23672123 30.58796654 28.91094246 30.60108566 29.60559464 C30.97728365 49.76430706 31.13570533 69.85861371 30 90 C29.67 90 29.34 90 29 90 C27.42882232 60.3328876 28.33559412 30.68361032 29 1 C20.75 1 12.5 1 4 1 C3.67 1.66 3.34 2.32 3 3 C2.34 2.67 1.68 2.34 1 2 C1.16749756 2.50305664 1.33499512 3.00611328 1.50756836 3.52441406 C2.17959015 6.90284787 2.01081811 10.1880692 1.87890625 13.609375 C1.85529526 14.33618469 1.83168427 15.06299438 1.80735779 15.81182861 C1.73101128 18.12476558 1.64686319 20.43734293 1.5625 22.75 C1.50925021 24.3215972 1.45651002 25.89321176 1.40429688 27.46484375 C1.27543568 31.31012196 1.13957873 35.15509651 1 39 C1.66 39.33 2.32 39.66 3 40 C2.34 40 1.68 40 1 40 C1.08378906 40.88042969 1.16757812 41.76085937 1.25390625 42.66796875 C1.35574219 43.82941406 1.45757812 44.99085938 1.5625 46.1875 C1.66691406 47.33605469 1.77132813 48.48460937 1.87890625 49.66796875 C1.98859985 52.68631199 1.74002389 55.08923936 1 58 C1.66 58.33 2.32 58.66 3 59 C2.505 59.495 2.505 59.495 2 60 C1.84259395 61.70563778 1.74906608 63.41727244 1.68359375 65.12890625 C1.64169922 66.16337891 1.59980469 67.19785156 1.55664062 68.26367188 C1.51732422 69.35228516 1.47800781 70.44089844 1.4375 71.5625 C1.39431641 72.65498047 1.35113281 73.74746094 1.30664062 74.87304688 C1.20017932 77.58189564 1.09816484 80.29083992 1 83 C0.67 83 0.34 83 0 83 C0 75.08 0 67.16 0 59 C-0.66 58.67 -1.32 58.34 -2 58 C-1.34 58 -0.68 58 0 58 C0 38.86 0 19.72 0 0 Z " fill="#834C61" transform="translate(261,299)"/>
<path d="M0 0 C1.17353189 3.52059568 1.20146402 6.306493 1 10 C-1 12 -1 12 -3.5 12.3125 C-4.7375 12.1578125 -4.7375 12.1578125 -6 12 C-8.29633824 8.55549263 -8.54016485 6.06187717 -9 2 C-5.86501708 0.14223235 -3.62528568 -0.20140476 0 0 Z " fill="#64325F" transform="translate(224,585)"/>
<path d="M0 0 C0.33 0 0.66 0 1 0 C1.20214204 9.18721442 1.38910479 18.37470037 1.5625 27.5625 C1.57523327 28.23672123 1.58796654 28.91094246 1.60108566 29.60559464 C1.97728365 49.76430706 2.13570533 69.85861371 1 90 C0.67 90 0.34 90 0 90 C-1.12170304 68.98523699 -0.96740895 48.03485002 -0.5625 27 C-0.54327925 26.00075878 -0.54327925 26.00075878 -0.5236702 24.98133087 C-0.36226984 16.65393089 -0.18733378 8.32685536 0 0 Z " fill="#C0A332" transform="translate(290,299)"/>
</svg>
